# Created by FreeCAD <http://www.freecadweb.org>
v 0.000000 3.500000 0.000000
v 0.000000 0.000000 0.000000
v 0.000000 3.500000 60.000000
v 0.000000 0.000000 60.000000
v 30.000000 0.000000 0.000000
v 30.000000 0.000000 60.000000
v 45.000000 37.000000 0.000000
v 45.000000 37.000000 60.000000
v 95.000000 37.000000 0.000000
v 95.000000 37.000000 60.000000
v 110.000000 0.000000 0.000000
v 110.000000 0.000000 60.000000
v 140.000000 0.000000 0.000000
v 140.000000 0.000000 60.000000
v 140.000000 3.500000 0.000000
v 140.000000 3.500000 60.000000
v 112.000000 3.500000 0.000000
v 112.000000 3.500000 60.000000
v 97.000000 40.500000 0.000000
v 97.000000 40.500000 60.000000
v 43.000000 40.500000 0.000000
v 43.000000 40.500000 60.000000
v 28.000000 3.500000 0.000000
v 28.000000 3.500000 60.000000
vn -1.000000 0.000000 0.000000
vn -1.000000 0.000000 0.000000
vn 0.000000 -1.000000 0.000000
vn 0.000000 -1.000000 0.000000
vn 0.926739 -0.375705 0.000000
vn 0.926739 -0.375705 0.000000
vn 0.000000 -1.000000 0.000000
vn 0.000000 -1.000000 0.000000
vn -0.926739 -0.375705 0.000000
vn -0.926739 -0.375705 0.000000
vn 0.000000 -1.000000 0.000000
vn 0.000000 -1.000000 0.000000
vn 1.000000 0.000000 0.000000
vn 1.000000 0.000000 0.000000
vn 0.000000 1.000000 0.000000
vn 0.000000 1.000000 -0.000000
vn 0.926739 0.375705 0.000000
vn 0.926739 0.375705 -0.000000
vn 0.000000 1.000000 0.000000
vn 0.000000 1.000000 -0.000000
vn -0.926739 0.375705 0.000000
vn -0.926739 0.375705 0.000000
vn 0.000000 1.000000 0.000000
vn 0.000000 1.000000 -0.000000
vn 0.000000 -0.000000 -1.000000
vn 0.000000 0.000000 -1.000000
vn 0.000000 0.000000 -1.000000
vn 0.000000 0.000000 -1.000000
vn 0.000000 0.000000 -1.000000
vn 0.000000 0.000000 -1.000000
vn 0.000000 0.000000 -1.000000
vn 0.000000 0.000000 -1.000000
vn 0.000000 -0.000000 -1.000000
vn 0.000000 0.000000 -1.000000
vn 0.000000 0.000000 1.000000
vn 0.000000 0.000000 1.000000
vn 0.000000 0.000000 1.000000
vn 0.000000 0.000000 1.000000
vn 0.000000 0.000000 1.000000
vn 0.000000 0.000000 1.000000
vn 0.000000 0.000000 1.000000
vn 0.000000 0.000000 1.000000
vn 0.000000 0.000000 1.000000
vn 0.000000 0.000000 1.000000
f 1//1 2//1 3//1
f 3//2 2//2 4//2
f 5//3 6//3 4//3
f 2//4 5//4 4//4
f 5//5 7//5 8//5
f 5//6 8//6 6//6
f 9//7 10//7 8//7
f 7//8 9//8 8//8
f 9//9 11//9 12//9
f 9//10 12//10 10//10
f 13//11 14//11 12//11
f 11//12 13//12 12//12
f 13//13 15//13 16//13
f 13//14 16//14 14//14
f 15//15 17//15 18//15
f 15//16 18//16 16//16
f 17//17 19//17 20//17
f 17//18 20//18 18//18
f 21//19 22//19 20//19
f 19//20 21//20 20//20
f 21//21 23//21 24//21
f 21//22 24//22 22//22
f 23//23 1//23 3//23
f 23//24 3//24 24//24
f 1//25 23//25 2//25
f 2//26 23//26 5//26
f 23//27 7//27 5//27
f 23//28 21//28 7//28
f 21//29 9//29 7//29
f 11//30 9//30 17//30
f 21//31 19//31 9//31
f 9//32 19//32 17//32
f 17//33 13//33 11//33
f 17//34 15//34 13//34
f 24//35 3//35 4//35
f 24//36 4//36 6//36
f 8//37 24//37 6//37
f 22//38 24//38 8//38
f 10//39 22//39 8//39
f 10//40 12//40 18//40
f 20//41 22//41 10//41
f 20//42 10//42 18//42
f 14//43 18//43 12//43
f 16//44 18//44 14//44
